<?xml version="1.0" encoding="UTF-8"?>
<svg id="Layer_2" data-name="Layer 2" xmlns="http://www.w3.org/2000/svg" viewBox="0 0 265.73 72.34">
  <defs>
    <style>
      .cls-1 {
        fill: #0026e7;
      }
    </style>
  </defs>
  <g id="Layer_1-2" data-name="Layer 1">
    <g id="uuid-3c6766da-1742-40b3-ba14-0ba56ca8a188" data-name="Layer 1-2">
      <g>
        <path class="cls-1" d="M80.6,7.79C74.53,2.27,66.4-.54,58.3.09c-3.85.3-7.59,1.35-11.11,3.14l-11.19,5.67c-1.47.75-3.05,1.36-4.68,1.82-1.26.36-2.58.63-3.91.81-7.53,1.02-14.46,4.74-19.5,10.47C2.8,27.79,0,35.22,0,42.94c0,.18,0,.36,0,.54.14,8.14,3.51,15.62,9.5,21.07,5.51,5.02,12.72,7.79,20.06,7.79.75,0,1.49-.03,2.24-.09,3.85-.3,7.59-1.35,11.11-3.14l11.19-5.67c1.47-.74,3.05-1.36,4.68-1.82h0c1.26-.36,2.58-.63,3.92-.82,7.53-1.02,14.46-4.74,19.5-10.47,5.09-5.78,7.9-13.22,7.9-20.93,0-.18,0-.36,0-.54-.14-8.14-3.51-15.62-9.5-21.07h0ZM52.85,60.95l-11.19,5.67c-2.73,1.38-5.6,2.28-8.56,2.68V13.1c1.44-.46,2.84-1.04,4.16-1.71l11.19-5.67c2.73-1.38,5.6-2.28,8.56-2.68v56.21c-1.44.46-2.84,1.04-4.16,1.71Z"/>
        <path class="cls-1" d="M121.85,19.18l6.43.1c-.12.45-.28.88-.49,1.27-.5.96-1.21,1.69-2.14,2.18s-2.04.75-3.33.75-2.45-.3-3.44-.91c-1-.61-1.79-1.44-2.36-2.5-.57-1.06-.86-2.28-.86-3.67s.29-2.63.88-3.68,1.4-1.87,2.44-2.46,2.22-.88,3.54-.88c1.21,0,2.31.24,3.3.72.99.48,1.83,1.18,2.53,2.12l3.44-3.44c-1.04-1.23-2.36-2.2-3.95-2.92s-3.36-1.07-5.29-1.07c-1.68,0-3.25.3-4.7.89s-2.74,1.42-3.84,2.47-1.97,2.28-2.58,3.67c-.62,1.39-.92,2.92-.92,4.58s.3,3.16.91,4.56c.61,1.4,1.44,2.64,2.5,3.7,1.06,1.06,2.31,1.9,3.75,2.5,1.43.61,2.98.91,4.64.91,2.23,0,4.2-.47,5.91-1.42,1.71-.95,3.05-2.34,4.02-4.19s1.45-4.11,1.45-6.79v-.73h-11.83v4.24h0Z"/>
        <path class="cls-1" d="M147.49,27.39c1.08-.44,2.01-1.11,2.77-2.02l-2.71-2.68c-.47.53-1.01.93-1.63,1.2s-1.3.4-2.04.4c-.83,0-1.55-.18-2.15-.53-.61-.35-1.07-.86-1.4-1.51-.1-.2-.19-.42-.26-.65l11.08-.05c.11-.38.18-.73.21-1.04.03-.31.05-.61.05-.91,0-1.51-.34-2.85-1.02-4.02-.68-1.17-1.61-2.08-2.77-2.74s-2.53-.99-4.08-.99-2.99.35-4.24,1.05c-1.25.7-2.24,1.66-2.97,2.89-.72,1.22-1.08,2.6-1.08,4.13s.37,2.98,1.12,4.21c.74,1.23,1.77,2.2,3.06,2.89s2.79,1.04,4.46,1.04c1.32,0,2.52-.22,3.6-.65h0ZM141.61,16.12c.56-.36,1.23-.54,1.99-.54.7,0,1.3.16,1.8.48s.88.77,1.13,1.36c.1.23.18.49.25.76l-6.71.04c.06-.21.14-.41.23-.59.31-.64.74-1.14,1.31-1.5h0Z"/>
        <path class="cls-1" d="M169.68,19.88c0-1.51-.37-2.87-1.12-4.1-.74-1.22-1.76-2.18-3.04-2.89-1.29-.7-2.73-1.05-4.32-1.05s-3.09.36-4.37,1.07c-1.28.71-2.28,1.67-3.01,2.89-.73,1.21-1.1,2.57-1.1,4.08s.37,2.91,1.12,4.15c.74,1.23,1.75,2.21,3.03,2.93s2.72,1.08,4.34,1.08,3.06-.36,4.34-1.08c1.28-.72,2.28-1.69,3.03-2.92.74-1.22,1.12-2.61,1.12-4.16ZM164.25,21.84c-.29.56-.7.99-1.23,1.29s-1.14.45-1.82.45-1.29-.15-1.82-.45c-.53-.3-.95-.73-1.24-1.29s-.45-1.21-.45-1.93c0-.68.15-1.3.45-1.85s.71-.98,1.24-1.29,1.14-.46,1.82-.46,1.28.15,1.8.46.93.73,1.23,1.28.45,1.16.45,1.87-.14,1.37-.43,1.93Z"/>
        <path class="cls-1" d="M186.94,27.69v-9.06c0-.51.11-.95.32-1.31.21-.36.51-.64.91-.84s.82-.3,1.29-.3c.68,0,1.26.22,1.74.65s.72,1.04.72,1.8v9.06h4.91v-9.63c0-1.3-.27-2.4-.8-3.32-.53-.91-1.26-1.62-2.2-2.12-.94-.5-1.99-.75-3.16-.75s-2.31.26-3.28.77c-.66.34-1.22.79-1.7,1.33-.45-.56-.98-1.01-1.6-1.37-.86-.49-1.82-.73-2.89-.73-1.17,0-2.21.24-3.11.72-.4.21-.77.47-1.1.76v-1.16h-4.91v15.5h4.91v-9.06c0-.51.11-.95.33-1.31s.53-.64.91-.84.82-.3,1.31-.3c.7,0,1.29.22,1.77.65.48.44.72,1.04.72,1.8v9.06h4.91,0Z"/>
        <path class="cls-1" d="M213.94,25.36l-2.71-2.68c-.47.53-1.01.93-1.63,1.2s-1.3.4-2.04.4c-.83,0-1.55-.18-2.15-.53-.61-.35-1.07-.86-1.4-1.51-.1-.2-.19-.42-.26-.65l11.08-.05c.11-.38.18-.73.21-1.04.03-.31.05-.61.05-.91,0-1.51-.34-2.85-1.02-4.02-.68-1.17-1.61-2.08-2.77-2.74s-2.53-.99-4.08-.99-2.99.35-4.24,1.05c-1.25.7-2.24,1.66-2.97,2.89-.72,1.22-1.08,2.6-1.08,4.13s.37,2.98,1.12,4.21c.74,1.23,1.77,2.2,3.06,2.89s2.79,1.04,4.46,1.04c1.32,0,2.52-.22,3.6-.65s2.01-1.11,2.77-2.02h0ZM205.29,16.12c.56-.36,1.23-.54,1.99-.54.7,0,1.3.16,1.8.48s.88.77,1.13,1.36c.1.23.18.49.25.76l-6.71.04c.06-.21.14-.41.23-.59.31-.64.74-1.14,1.31-1.5h0Z"/>
        <polygon class="cls-1" points="224.5 27.69 224.5 16.37 228.01 16.37 228.01 12.19 224.5 12.19 224.5 5.78 219.59 5.78 219.59 12.19 216.11 12.19 216.11 16.37 219.59 16.37 219.59 27.69 224.5 27.69"/>
        <path class="cls-1" d="M239.01,11.88c-1.68,0-3,.5-3.97,1.5,0,0-.01.01-.02.02v-1.2h-4.91v15.5h4.91v-8.48c0-1,.24-1.75.72-2.25s1.13-.75,1.96-.75c.4,0,.77.06,1.08.19s.57.3.77.51l2.9-3.7c-.43-.45-.92-.78-1.48-1s-1.22-.33-1.96-.33h0Z"/>
        <path class="cls-1" d="M246.18,4.7c-.74,0-1.37.26-1.88.77s-.77,1.15-.77,1.91.26,1.38.77,1.91,1.14.8,1.88.8c.79,0,1.42-.27,1.9-.8s.72-1.17.72-1.91-.24-1.4-.72-1.91-1.11-.77-1.9-.77Z"/>
        <rect class="cls-1" x="243.73" y="12.19" width="4.91" height="15.5"/>
        <path class="cls-1" d="M262.57,22.33c-.36.4-.79.71-1.29.92-.5.21-1.07.32-1.71.32s-1.26-.15-1.82-.46c-.55-.31-.98-.74-1.29-1.29-.31-.55-.46-1.19-.46-1.91s.15-1.32.46-1.87c.31-.54.73-.97,1.28-1.28s1.15-.46,1.83-.46c.62,0,1.16.1,1.64.29.48.19.9.49,1.26.89l3.16-3.19c-.79-.81-1.69-1.42-2.69-1.83-1.01-.41-2.13-.62-3.36-.62-1.61,0-3.07.35-4.37,1.05-1.3.7-2.32,1.66-3.06,2.89-.74,1.22-1.12,2.61-1.12,4.16s.37,2.91,1.1,4.15c.73,1.23,1.75,2.2,3.04,2.9,1.3.7,2.75,1.05,4.37,1.05,1.28,0,2.42-.22,3.43-.65s1.93-1.08,2.76-1.93l-3.16-3.12Z"/>
        <polygon class="cls-1" points="114.93 47.75 124.07 47.75 124.07 44.89 114.93 44.89 114.93 39.58 124.89 39.58 124.89 36.6 114.93 36.6 113.91 36.6 111.67 36.6 111.67 56.47 113.91 56.47 114.93 56.47 125.03 56.47 125.03 53.49 114.93 53.49 114.93 47.75"/>
        <rect class="cls-1" x="127.99" y="36.03" width="3.12" height="20.43"/>
        <path class="cls-1" d="M158.35,46.53c0-1.42-.26-2.73-.77-3.93-.51-1.2-1.23-2.25-2.14-3.15-.92-.9-1.99-1.6-3.22-2.1s-2.56-.75-4-.75h-7.55v19.87h7.61c1.42,0,2.74-.25,3.97-.75s2.3-1.2,3.21-2.1c.91-.9,1.62-1.95,2.13-3.16.51-1.21.77-2.52.77-3.92h0ZM154.14,50.15c-.58,1.05-1.38,1.87-2.41,2.46-1.03.59-2.23.88-3.59.88h-4.2v-13.91h4.2c1.34,0,2.53.29,3.56.88,1.03.59,1.84,1.4,2.43,2.44.59,1.04.88,2.24.88,3.61s-.29,2.6-.87,3.65Z"/>
        <path class="cls-1" d="M163.15,36.6c-.53,0-.97.18-1.32.54-.35.36-.52.8-.52,1.33s.18.97.52,1.33c.35.36.79.54,1.32.54s.99-.18,1.33-.54.51-.8.51-1.33-.17-.97-.51-1.33c-.34-.36-.79-.54-1.33-.54Z"/>
        <path class="cls-1" d="M161.53,57.66c0,.61-.18,1.06-.55,1.38s-.81.47-1.32.47c-.42,0-.77-.07-1.05-.21s-.54-.36-.77-.67l-2.02,2.02c.51.59,1.07,1.03,1.69,1.33.61.3,1.41.45,2.37.45.85,0,1.64-.18,2.35-.55.72-.37,1.3-.91,1.74-1.62.44-.71.67-1.59.67-2.63v-14.79h-3.12v14.81Z"/>
        <path class="cls-1" d="M177.99,44.36c-.39-.45-.86-.83-1.41-1.13-.8-.44-1.73-.67-2.77-.67-1.23,0-2.34.32-3.33.95s-1.78,1.48-2.35,2.55c-.58,1.07-.87,2.28-.87,3.62s.29,2.52.87,3.59c.58,1.07,1.36,1.92,2.35,2.54s2.1.94,3.33.94c1.04,0,1.97-.22,2.78-.67.54-.3,1-.67,1.39-1.11v1.49h3.12v-13.62h-3.12v1.52h0ZM177.12,52.64c-.71.78-1.64,1.16-2.79,1.16-.76,0-1.42-.18-2-.53-.58-.35-1.03-.84-1.36-1.46-.33-.62-.5-1.34-.5-2.16s.17-1.53.5-2.16.79-1.11,1.36-1.46c.58-.35,1.24-.53,2-.53s1.45.18,2.03.53c.58.35,1.02.84,1.35,1.46.32.62.48,1.34.48,2.16,0,1.21-.36,2.2-1.06,2.98h0Z"/>
        <polygon class="cls-1" points="184.06 45.68 190.31 45.68 183.55 54.76 183.55 56.47 194.65 56.47 194.65 53.63 188.06 53.63 194.82 44.55 194.82 42.84 184.06 42.84 184.06 45.68"/>
        <path class="cls-1" d="M207.02,44.36c-.39-.45-.86-.83-1.41-1.13-.8-.44-1.73-.67-2.77-.67-1.23,0-2.34.32-3.33.95s-1.78,1.48-2.35,2.55c-.58,1.07-.87,2.28-.87,3.62s.29,2.52.87,3.59c.58,1.07,1.36,1.92,2.35,2.54s2.1.94,3.33.94c1.04,0,1.97-.22,2.78-.67.54-.3,1-.67,1.39-1.11v1.49h3.12v-13.62h-3.12v1.52h0ZM206.15,52.64c-.71.78-1.64,1.16-2.79,1.16-.76,0-1.42-.18-2-.53-.58-.35-1.03-.84-1.36-1.46-.33-.62-.5-1.34-.5-2.16s.17-1.53.5-2.16.79-1.11,1.36-1.46c.58-.35,1.24-.53,2-.53s1.45.18,2.03.53c.58.35,1.02.84,1.35,1.46.32.62.48,1.34.48,2.16,0,1.21-.36,2.2-1.06,2.98h0Z"/>
        <rect class="cls-1" x="213.63" y="42.84" width="3.12" height="13.62"/>
        <path class="cls-1" d="M215.19,36.6c-.53,0-.97.18-1.32.54-.35.36-.53.8-.53,1.33s.18.97.53,1.33.79.54,1.32.54.99-.18,1.33-.54.51-.8.51-1.33-.17-.97-.51-1.33c-.34-.36-.79-.54-1.33-.54Z"/>
        <path class="cls-1" d="M228.76,42.93c-.55-.25-1.16-.37-1.84-.37-1.55,0-2.71.54-3.48,1.6-.03.03-.05.07-.07.11v-1.43h-3.12v13.62h3.12v-7.58c0-1.17.28-2.03.85-2.58s1.29-.82,2.16-.82c.4,0,.75.06,1.05.17.3.11.58.3.82.57l2.04-2.1c-.47-.55-.98-.95-1.53-1.19h0Z"/>
        <path class="cls-1" d="M232.47,52.55c-.61,0-1.1.2-1.49.6-.39.4-.58.9-.58,1.5s.19,1.08.58,1.49c.39.41.88.61,1.49.61s1.1-.2,1.49-.61c.39-.41.58-.9.58-1.49s-.19-1.11-.58-1.5c-.39-.4-.88-.6-1.49-.6h0Z"/>
      </g>
    </g>
  </g>
</svg>